# xmcd
#
# Track frame offsets: 
#        150
#        20945
#        46072
#        72284
#        95050
#        135276
#        153022
#        174162
#        189923
#        216718
#        252396
#        281319
#        302667
#        329693
#
# Disc length: 4710 seconds
#
# Revision: 0
# Processed by: cddbd v1.5.2PL0 Copyright (c) Steve Scherf et al.
# Submitted via: ExactAudioCopy v0.99pb5
#
DISCID=c412640e
DTITLE=Eric Clapton - When Belfast Got the Blues
DYEAR=2004
DGENRE=Blues
TTITLE0=Let It Rain
TTITLE1=Hoochie Coochie Man
TTITLE2=Walk Out In The Rain
TTITLE3=Bell Bottom Blues
TTITLE4=I Shot The Sheriff
TTITLE5=Milkcow's Calf Blues
TTITLE6=When You Got A Good Friend
TTITLE7=They're Red Hot
TTITLE8=Kind Hearted Woman Blues
TTITLE9=Got To Get Better In A Little While
TTITLE10=Badge
TTITLE11=Wonderful Tonight
TTITLE12=Layla
TTITLE13=Cocaine
EXTD=
EXTT0=
EXTT1=
EXTT2=
EXTT3=
EXTT4=
EXTT5=
EXTT6=
EXTT7=
EXTT8=
EXTT9=
EXTT10=
EXTT11=
EXTT12=
EXTT13=
PLAYORDER=
